<?xml version="1.0" encoding="utf-8"?>
<!-- Generator: Adobe Illustrator 23.1.0, SVG Export Plug-In . SVG Version: 6.00 Build 0)  -->
<svg version="1.1" id="Layer_1" xmlns="http://www.w3.org/2000/svg" xmlns:xlink="http://www.w3.org/1999/xlink" x="0px" y="0px"
	 viewBox="0 0 100 100" style="enable-background:new 0 0 100 100;" xml:space="preserve">
<style type="text/css">
	.st0{display:none;}
	.st1{display:inline;fill:#4C70B8;}
	.st2{display:inline;}
	.st3{fill:#4C70B8;}
	.st4{fill:#4C70B8;stroke:#00549F;stroke-width:0.426;stroke-miterlimit:10;}
	.st5{fill:#4C70B8;stroke:#555CA9;stroke-width:0.426;stroke-miterlimit:10;}
</style>
<g class="st0">
	<path class="st1" d="M60.4,74.1H21V17.6h39.4v4.2h5.3v-5.4c0-5.1-4.2-9.2-9.2-9.2H24.9c-5.1,0-9.2,4.2-9.2,9.2v66.2
		c0,5.1,4.2,9.2,9.2,9.2h31.6c5.1,0,9.2-4.2,9.2-9.2V74L60.4,74.1L60.4,74.1z M40.7,87.2c-2.3,0-4.2-1.9-4.2-4.2
		c0-2.3,1.9-4.2,4.2-4.2c2.3,0,4.2,1.9,4.2,4.2C44.9,85.3,43,87.2,40.7,87.2"/>
	<rect x="25.5" y="24.2" class="st1" width="11.8" height="7.2"/>
	<rect x="25.5" y="41.7" class="st1" width="11.8" height="7.2"/>
	<rect x="25.5" y="61.1" class="st1" width="11.8" height="7.2"/>
	<path class="st1" d="M79.3,44.9c-0.4-2.2-1.3-4.2-2.5-6l4.2-4.2l-4.3-4.3l-4.2,4.2c-1.8-1.2-3.8-2-6-2.5v-6h-6.1v6
		c-2.2,0.4-4.2,1.3-6,2.5l-4.2-4.2l-4.3,4.3l4.2,4.2c-1.2,1.8-2,3.8-2.5,6h-6V51h6c0.4,2.2,1.3,4.2,2.5,6l-4.2,4.2l4.3,4.3l4.2-4.2
		c1.8,1.2,3.8,2,6,2.5v6h6.1v-6c2.2-0.4,4.2-1.3,6-2.5l4.2,4.2l4.3-4.3L76.9,57c1.2-1.8,2-3.8,2.5-6h6v-6.1H79.3z M63.5,54.6
		c-3.7,0-6.7-3-6.7-6.7c0-3.7,3-6.7,6.7-6.7c3.7,0,6.7,3,6.7,6.7C70.2,51.6,67.2,54.6,63.5,54.6"/>
</g>
<g class="st0">
	<g class="st2">
		<path class="st3" d="M62.9,74.6c-0.4-0.2-0.7-0.5-1-0.9c-0.1-0.2-0.2-0.4-0.3-0.5H18.2V30.3h58.9v27.9c1.3,0.1,2.3,0.9,2.8,2.1
			c0.4-0.2,0.8-0.3,1.3-0.4c0.3,0,0.6,0,0.9,0.1V19.7c0-2.3-1.9-4.1-4.1-4.1H17.3c-2.3,0-4.1,1.9-4.1,4.1V74c0,2.3,1.9,4.1,4.1,4.1
			h45.2c-0.4-0.7-0.4-1.5-0.2-2.3C62.4,75.4,62.6,75,62.9,74.6 M72.5,22.5c0-0.8,0.7-1.5,1.5-1.5h1.5c0.8,0,1.5,0.7,1.5,1.5v1.7
			c0,0.8-0.7,1.5-1.5,1.5h-1.5c-0.8,0-1.5-0.7-1.5-1.5V22.5z M65.4,22.5c0-0.8,0.7-1.5,1.5-1.5h1.5c0.8,0,1.5,0.7,1.5,1.5v1.7
			c0,0.8-0.7,1.5-1.5,1.5H67c-0.8,0-1.5-0.7-1.5-1.5V22.5z M58.3,22.5c0-0.8,0.7-1.5,1.5-1.5h1.5c0.8,0,1.5,0.7,1.5,1.5v1.7
			c0,0.8-0.7,1.5-1.5,1.5h-1.5c-0.8,0-1.5-0.7-1.5-1.5V22.5z"/>
		<path class="st3" d="M86.9,71.7l-0.5-2.6c-0.1-0.4-0.4-0.6-0.7-0.5L83.4,69c-0.3-0.7-0.6-1.3-1.1-1.8l1.5-1.8
			C84,65.2,84,65,84,64.9c0-0.2-0.1-0.3-0.2-0.4l-2-1.7c-0.1-0.1-0.3-0.2-0.5-0.1c-0.2,0-0.3,0.1-0.4,0.2l-1.5,1.8
			c-0.6-0.3-1.3-0.6-2-0.7v-2.4c0-0.4-0.3-0.6-0.6-0.6h-2.6c-0.4,0-0.6,0.3-0.6,0.6v2.4c-0.7,0.2-1.4,0.4-2,0.7l-1.5-1.8
			c-0.2-0.3-0.6-0.3-0.9-0.1l-2,1.7c-0.1,0.1-0.2,0.3-0.2,0.4c0,0.2,0,0.3,0.1,0.5l1.5,1.8c-0.4,0.6-0.8,1.2-1.1,1.8l-2.3-0.4
			c-0.3-0.1-0.7,0.2-0.7,0.5l-0.5,2.6c0,0.2,0,0.3,0.1,0.5c0.1,0.1,0.2,0.2,0.4,0.3l2.3,0.4c0,0.7,0.2,1.4,0.4,2.1l-2,1.2
			c-0.1,0.1-0.3,0.2-0.3,0.4c0,0.2,0,0.3,0.1,0.5l1.3,2.3c0.1,0.1,0.2,0.3,0.4,0.3c0.1,0,0.1,0,0.2,0c0.1,0,0.2,0,0.3-0.1l2-1.2
			c0.5,0.5,1,1,1.6,1.4l-0.8,2.2c-0.1,0.2-0.1,0.3,0,0.5c0.1,0.2,0.2,0.3,0.4,0.3l2.5,0.9c0.1,0,0.1,0,0.2,0c0.1,0,0.2,0,0.3-0.1
			c0.2-0.1,0.3-0.2,0.3-0.4l0.8-2.2c0.3,0,0.7,0.1,1.1,0.1c0.4,0,0.7,0,1.1-0.1l0.8,2.2c0.1,0.2,0.2,0.3,0.3,0.4
			c0.1,0,0.2,0.1,0.3,0.1c0.1,0,0.1,0,0.2,0l2.5-0.9c0.2-0.1,0.3-0.2,0.4-0.3c0.1-0.2,0.1-0.3,0-0.5l-0.8-2.2
			c0.6-0.4,1.1-0.8,1.6-1.4l2,1.2c0.1,0.1,0.2,0.1,0.3,0.1c0.1,0,0.1,0,0.2,0c0.2,0,0.3-0.2,0.4-0.3L86,77c0.1-0.1,0.1-0.3,0.1-0.5
			c0-0.2-0.2-0.3-0.3-0.4l-2-1.2c0.2-0.7,0.3-1.4,0.4-2.1l2.3-0.4c0.2,0,0.3-0.1,0.4-0.3C86.9,72,87,71.9,86.9,71.7 M75.4,75.8
			c-2,0-3.5-1.6-3.5-3.5c0-2,1.6-3.5,3.5-3.5c2,0,3.5,1.6,3.5,3.5C78.9,74.2,77.3,75.8,75.4,75.8"/>
	</g>
	<path class="st1" d="M42.1,54.1c0-0.8-0.5-1.6-1.2-2l-6.9-3.2l6.9-3.2c0.8-0.4,1.2-1.1,1.2-2v-0.1c0-0.7-0.4-1.4-1-1.8
		c-0.3-0.2-0.7-0.3-1.2-0.3c-0.3,0-0.6,0.1-0.9,0.2L28,46.9c-0.8,0.4-1.2,1.1-1.2,2V49c0,0.8,0.5,1.6,1.2,2L39,56.1
		c0.3,0.1,0.6,0.2,0.9,0.2c0.4,0,0.8-0.1,1.2-0.3C41.7,55.5,42.1,54.9,42.1,54.1L42.1,54.1z"/>
	<path class="st1" d="M53,36.3c-0.4-0.6-1.1-0.9-1.7-0.9h-0.1c-0.9,0-1.8,0.6-2.1,1.5l-7.3,22.6c-0.2,0.7-0.1,1.4,0.3,1.9
		c0.4,0.6,1.1,0.9,1.7,0.9H44c0.9,0,1.8-0.6,2-1.5l7.3-22.6C53.6,37.5,53.4,36.8,53,36.3"/>
	<path class="st1" d="M67.3,46.9l-11.1-5.2c-0.3-0.1-0.6-0.2-0.9-0.2c-0.4,0-0.8,0.1-1.2,0.3c-0.6,0.4-1,1.1-1,1.8v0.1
		c0,0.8,0.5,1.6,1.2,2l6.9,3.2l-6.9,3.2c-0.8,0.4-1.2,1.1-1.2,2v0.1c0,0.7,0.4,1.4,1,1.8c0.3,0.2,0.7,0.3,1.2,0.3
		c0.3,0,0.6-0.1,0.9-0.2l11.1-5.2c0.8-0.4,1.2-1.1,1.2-2v-0.2C68.5,48,68,47.2,67.3,46.9"/>
</g>
<g class="st0">
	<path class="st1" d="M32.4,21.3c0,1.3-1.1,2.4-2.5,2.4c-1.3,0-2.4-1.1-2.4-2.5c0-1.3,1.1-2.4,2.4-2.4
		C31.3,18.8,32.4,19.9,32.4,21.3"/>
	<path class="st1" d="M25,21.3c0,1.3-1.1,2.4-2.5,2.4c-1.3,0-2.4-1.1-2.4-2.5c0-1.3,1.1-2.4,2.4-2.4C24,18.8,25.1,19.9,25,21.3"/>
	<path class="st1" d="M39.7,21.3c0,1.3-1.1,2.4-2.5,2.4c-1.3,0-2.4-1.1-2.4-2.5c0-1.3,1.1-2.4,2.4-2.4
		C38.6,18.8,39.7,19.9,39.7,21.3"/>
	<path class="st1" d="M82.5,14.4H17.7c-1.3,0-2.4,1.1-2.4,2.4v64.7c0,1.3,1.1,2.4,2.4,2.4h64.7c1.3,0,2.4-1.1,2.4-2.4V16.9
		C84.9,15.5,83.8,14.4,82.5,14.4 M82.5,81.6H17.7V28.1h64.7V81.6z M82.5,25.6H17.7v-8.8h64.7V25.6z"/>
	<path class="st1" d="M79.7,22.3c0.5,0.5,0.5,1.2,0,1.7c-0.2,0.2-0.5,0.4-0.9,0.4c-0.3,0-0.6-0.1-0.9-0.4l-1-1l-1,1
		c-0.2,0.2-0.5,0.4-0.9,0.4c-0.3,0-0.6-0.1-0.9-0.4c-0.5-0.5-0.5-1.2,0-1.7l1-1l-1-1c-0.5-0.5-0.5-1.3,0-1.7c0.5-0.5,1.2-0.5,1.7,0
		l1,1l1-1c0.5-0.5,1.2-0.5,1.7,0c0.5,0.5,0.5,1.3,0,1.7l-1,1L79.7,22.3z"/>
	<path class="st1" d="M71.5,21.3c0,0.7-0.5,1.2-1.2,1.2h-4.9c-0.7,0-1.2-0.5-1.2-1.2c0-0.7,0.5-1.2,1.2-1.2h4.9
		C70.9,20,71.5,20.6,71.5,21.3"/>
	<path class="st1" d="M35.6,62.6L40,60h21.6c1.3,0,2.5-0.7,3.1-1.9L71.7,45c0.7-1.3,0.6-2.8-0.3-3.9l-0.9-1.2
		c-0.7-0.9-1.7-1.5-2.9-1.5h0l-28.8,0.1l-0.2-1.9c-0.2-1.9-1.8-3.4-3.7-3.4h-6.9c-0.7,0-1.2,0.5-1.2,1.2c0,0.7,0.5,1.2,1.2,1.2H35
		c0.7,0,1.2,0.6,1.3,1.2l2.2,21.3l-4.1,2.4c-1,0.7-1.6,1.9-1.6,3.2V64c0,2,1.5,3.6,3.5,3.8c-0.6,0.9-1,2-1,3.2
		c-0.1,3,2.2,5.5,5.2,5.6c3,0.1,5.5-2.2,5.6-5.2c0-0.1,0-0.3,0-0.4c0-1.1-0.3-2.2-0.9-3.1h11.1c-0.6,0.9-0.9,2-0.9,3.1
		c-0.1,3,2.2,5.5,5.2,5.6c3,0.1,5.5-2.2,5.6-5.2c0-0.1,0-0.3,0-0.4c0-1.1-0.3-2.2-0.9-3.1h2.2c0.7,0,1.2-0.5,1.2-1.2
		c0-0.7-0.5-1.2-1.2-1.2H36.4c-0.7,0-1.3-0.7-1.3-1.4v-0.3C35.1,63.2,35.3,62.8,35.6,62.6 M62.6,56.9c-0.2,0.4-0.6,0.6-1,0.6H40.8
		l-1.3-12.4l29.3,0L62.6,56.9z M67.7,40.8L67.7,40.8c0.4,0,0.7,0.2,0.9,0.5l0.9,1.2c0,0.1,0.1,0.1,0.1,0.2l-30.2,0l-0.2-1.9
		L67.7,40.8z M60.5,67.9c1.7-0.1,3.2,1.2,3.4,2.9c0.1,1.7-1.2,3.2-2.9,3.4c-1.7,0.1-3.2-1.2-3.4-2.9c0-0.1,0-0.2,0-0.2
		C57.5,69.3,58.8,67.9,60.5,67.9 M40.5,67.9c1.7-0.1,3.2,1.2,3.4,2.9S42.7,74,41,74.2c-1.7,0.1-3.2-1.2-3.4-2.9c0-0.1,0-0.2,0-0.2
		C37.6,69.3,38.9,67.9,40.5,67.9"/>
</g>
<g class="st0">
	<path class="st1" d="M84.8,67.9v-51H15.7v51h30.4v8H35.7v6h29.1v-6H54.4v-8H84.8z M20.4,21.6h59.5V63H20.4V21.6z M50.6,35v-2
		l-2.1-0.4c-0.2-0.7-0.4-1.3-0.8-1.9L49,29l-1.4-1.4l-1.7,1.2c-0.6-0.4-1.2-0.6-1.9-0.8l-0.4-2.1h-2L41.2,28
		c-0.7,0.2-1.3,0.4-1.9,0.8l-1.7-1.2L36.1,29l1.2,1.7c-0.4,0.6-0.6,1.2-0.8,1.9L34.4,33v2l2.1,0.4c0.2,0.7,0.4,1.3,0.8,1.9L36.1,39
		l1.4,1.4l1.7-1.2c0.6,0.4,1.2,0.6,1.9,0.8l0.4,2.1h2l0.4-2.1c0.7-0.2,1.3-0.4,1.9-0.8l1.7,1.2L49,39l-1.2-1.7
		c0.4-0.6,0.6-1.2,0.8-1.9L50.6,35z M42.5,37.2c-1.8,0-3.2-1.4-3.2-3.2c0-1.8,1.4-3.2,3.2-3.2c1.8,0,3.2,1.4,3.2,3.2
		C45.7,35.7,44.3,37.2,42.5,37.2 M64.6,46.5l2.5-1.5l-1-2.5l-2.8,0.6c-0.5-0.8-1.2-1.4-2-2l0.7-2.8l-2.5-1.1l-1.5,2.4
		c-0.9-0.2-1.9-0.2-2.8,0l-1.5-2.5l-2.5,1l0.6,2.8c-0.8,0.5-1.4,1.2-2,2l-2.8-0.7l-1.1,2.5l2.4,1.5c-0.2,0.9-0.2,1.9,0,2.8l-2.5,1.5
		l1,2.5l2.8-0.6c0.5,0.8,1.2,1.4,2,2l-0.7,2.8l2.5,1.1l1.5-2.4c0.9,0.2,1.9,0.2,2.8,0l1.5,2.5l2.5-1l-0.6-2.8c0.8-0.5,1.4-1.2,2-2
		l2.8,0.7l1.1-2.5l-2.4-1.5C64.8,48.4,64.8,47.4,64.6,46.5 M60.4,49.5c-0.9,2.2-3.5,3.2-5.7,2.3c-2.2-0.9-3.2-3.5-2.3-5.7
		c0.9-2.2,3.5-3.2,5.7-2.3C60.3,44.8,61.3,47.3,60.4,49.5 M40.3,49.2c0,0.8-0.7,1.5-1.5,1.5c-0.8,0-1.5-0.7-1.5-1.5s0.7-1.5,1.5-1.5
		C39.7,47.7,40.3,48.4,40.3,49.2 M44.2,49.9v-1.3l-1.4-0.2c-0.1-0.5-0.3-0.9-0.5-1.3l0.8-1.2L42.2,45L41,45.8
		c-0.4-0.2-0.8-0.4-1.3-0.5l-0.2-1.4h-1.3L38,45.3c-0.5,0.1-0.9,0.3-1.3,0.5L35.5,45l-0.9,0.9l0.8,1.2c-0.2,0.4-0.4,0.8-0.5,1.3
		l-1.4,0.2v1.3l1.4,0.2c0.1,0.5,0.3,0.9,0.5,1.3l-0.8,1.2l0.9,0.9l1.2-0.8c0.4,0.2,0.8,0.4,1.3,0.5l0.2,1.4h1.3l0.2-1.4
		c0.5-0.1,0.9-0.3,1.3-0.5l1.2,0.8l0.9-0.9l-0.8-1.2c0.2-0.4,0.4-0.8,0.5-1.3L44.2,49.9z"/>
</g>
<path class="st3" d="M31.6,28.5h41c0.6,0,1-0.5,1-1c0-0.6-0.5-1-1-1h-41c-0.6,0-1,0.5-1,1C30.6,28.1,31.1,28.5,31.6,28.5"/>
<path class="st4" d="M31.6,28.5h41c0.6,0,1-0.5,1-1c0-0.6-0.5-1-1-1h-41c-0.6,0-1,0.5-1,1C30.6,28.1,31.1,28.5,31.6,28.5z"/>
<path class="st3" d="M77,28.5h2.2c0.6,0,1-0.5,1-1c0-0.6-0.5-1-1-1H77c-0.6,0-1,0.5-1,1C76,28.1,76.4,28.5,77,28.5"/>
<path class="st5" d="M77,28.5h2.2c0.6,0,1-0.5,1-1c0-0.6-0.5-1-1-1H77c-0.6,0-1,0.5-1,1C76,28.1,76.4,28.5,77,28.5z"/>
<path class="st3" d="M74.8,37.3H55.4c-1.7,0-3.2,1.4-3.2,3.2v0.1h-1.1c-1.7,0-3.2,1.4-3.2,3.2v8.7h-2.3v-3.3c0-1.7-1.4-3.2-3.2-3.2
	H25.2c-1.7,0-3.2,1.4-3.2,3.2v8.6c0,1.7,1.4,3.2,3.2,3.2h17.3c1.7,0,3.2-1.4,3.2-3.2v-3.3h2.3v8.7c0,1.7,1.4,3.2,3.2,3.2h1.1v0.1
	c0,1.8,1.4,3.2,3.2,3.2h19.4c1.7,0,3.2-1.4,3.2-3.2v-2.2c0-1.8-1.4-3.2-3.2-3.2H55.4c-1.7,0-3.2,1.4-3.2,3.2v0.1h-1.1
	c-0.6,0-1.1-0.5-1.1-1.1v-8.7h2.3v0.1c0,1.7,1.4,3.2,3.2,3.2h19.4c1.7,0,3.2-1.4,3.2-3.2v-2.2c0-1.8-1.4-3.2-3.2-3.2H55.4
	c-1.7,0-3.2,1.4-3.2,3.2v0.1h-2.3v-8.7c0-0.6,0.5-1.1,1.1-1.1h1.1v0.1c0,1.7,1.4,3.2,3.2,3.2h19.4c1.7,0,3.2-1.4,3.2-3.2v-2.2
	C78,38.7,76.6,37.3,74.8,37.3 M43.6,57.8c0,0.6-0.5,1.1-1.1,1.1H25.2c-0.6,0-1.1-0.5-1.1-1.1v-8.6c0-0.6,0.5-1.1,1.1-1.1h17.3
	c0.6,0,1.1,0.5,1.1,1.1V57.8z M54.3,64.2c0-0.6,0.5-1.1,1.1-1.1h19.4c0.6,0,1.1,0.5,1.1,1.1v2.2c0,0.6-0.5,1.1-1.1,1.1H55.4
	c-0.6,0-1.1-0.5-1.1-1.1V64.2z M54.3,52.4c0-0.6,0.5-1.1,1.1-1.1h19.4c0.6,0,1.1,0.5,1.1,1.1v2.2c0,0.6-0.5,1.1-1.1,1.1H55.4
	c-0.6,0-1.1-0.5-1.1-1.1V52.4z M76,42.6c0,0.6-0.5,1.1-1.1,1.1H55.4c-0.6,0-1.1-0.5-1.1-1.1v-2.2c0-0.6,0.5-1.1,1.1-1.1h19.4
	c0.6,0,1.1,0.5,1.1,1.1V42.6z"/>
<path class="st5" d="M74.8,37.3H55.4c-1.7,0-3.2,1.4-3.2,3.2v0.1h-1.1c-1.7,0-3.2,1.4-3.2,3.2v8.7h-2.3v-3.3c0-1.7-1.4-3.2-3.2-3.2
	H25.2c-1.7,0-3.2,1.4-3.2,3.2v8.6c0,1.7,1.4,3.2,3.2,3.2h17.3c1.7,0,3.2-1.4,3.2-3.2v-3.3h2.3v8.7c0,1.7,1.4,3.2,3.2,3.2h1.1v0.1
	c0,1.8,1.4,3.2,3.2,3.2h19.4c1.7,0,3.2-1.4,3.2-3.2v-2.2c0-1.8-1.4-3.2-3.2-3.2H55.4c-1.7,0-3.2,1.4-3.2,3.2v0.1h-1.1
	c-0.6,0-1.1-0.5-1.1-1.1v-8.7h2.3v0.1c0,1.7,1.4,3.2,3.2,3.2h19.4c1.7,0,3.2-1.4,3.2-3.2v-2.2c0-1.8-1.4-3.2-3.2-3.2H55.4
	c-1.7,0-3.2,1.4-3.2,3.2v0.1h-2.3v-8.7c0-0.6,0.5-1.1,1.1-1.1h1.1v0.1c0,1.7,1.4,3.2,3.2,3.2h19.4c1.7,0,3.2-1.4,3.2-3.2v-2.2
	C78,38.7,76.6,37.3,74.8,37.3z M43.6,57.8c0,0.6-0.5,1.1-1.1,1.1H25.2c-0.6,0-1.1-0.5-1.1-1.1v-8.6c0-0.6,0.5-1.1,1.1-1.1h17.3
	c0.6,0,1.1,0.5,1.1,1.1V57.8z M54.3,64.2c0-0.6,0.5-1.1,1.1-1.1h19.4c0.6,0,1.1,0.5,1.1,1.1v2.2c0,0.6-0.5,1.1-1.1,1.1H55.4
	c-0.6,0-1.1-0.5-1.1-1.1V64.2z M54.3,52.4c0-0.6,0.5-1.1,1.1-1.1h19.4c0.6,0,1.1,0.5,1.1,1.1v2.2c0,0.6-0.5,1.1-1.1,1.1H55.4
	c-0.6,0-1.1-0.5-1.1-1.1V52.4z M76,42.6c0,0.6-0.5,1.1-1.1,1.1H55.4c-0.6,0-1.1-0.5-1.1-1.1v-2.2c0-0.6,0.5-1.1,1.1-1.1h19.4
	c0.6,0,1.1,0.5,1.1,1.1V42.6z"/>
<path class="st3" d="M79.2,22.2H20.8c-2.9,0-5.3,2.4-5.3,5.3v43.2c0,2.9,2.4,5.3,5.3,5.3h58.3c2.9,0,5.3-2.4,5.3-5.3V27.5
	C84.5,24.6,82.1,22.2,79.2,22.2 M20.8,24.2h58.3c1.8,0,3.3,1.5,3.3,3.3v3.3H17.5v-3.3C17.5,25.7,19,24.2,20.8,24.2 M79.2,74H20.8
	c-1.8,0-3.3-1.5-3.3-3.3V32.9h64.9v37.9C82.5,72.5,81,74,79.2,74"/>
<path class="st5" d="M79.2,22.2H20.8c-2.9,0-5.3,2.4-5.3,5.3v43.2c0,2.9,2.4,5.3,5.3,5.3h58.3c2.9,0,5.3-2.4,5.3-5.3V27.5
	C84.5,24.6,82.1,22.2,79.2,22.2z M20.8,24.2h58.3c1.8,0,3.3,1.5,3.3,3.3v3.3H17.5v-3.3C17.5,25.7,19,24.2,20.8,24.2z M79.2,74H20.8
	c-1.8,0-3.3-1.5-3.3-3.3V32.9h64.9v37.9C82.5,72.5,81,74,79.2,74z"/>
</svg>
