<?xml version="1.0" encoding="utf-8"?>
<!-- Generator: Adobe Illustrator 23.1.0, SVG Export Plug-In . SVG Version: 6.00 Build 0)  -->
<svg version="1.1" id="Layer_1" xmlns="http://www.w3.org/2000/svg" xmlns:xlink="http://www.w3.org/1999/xlink" x="0px" y="0px"
	 viewBox="0 0 100 100" style="enable-background:new 0 0 100 100;" xml:space="preserve">
<style type="text/css">
	.st0{fill:#4C70B8;}
	.st1{display:none;}
	.st2{display:inline;}
	.st3{display:inline;fill:#4C70B8;}
</style>
<g>
	<path class="st0" d="M60.4,74.1H21V17.6h39.4v4.2h5.3v-5.4c0-5.1-4.2-9.2-9.2-9.2H24.9c-5.1,0-9.2,4.2-9.2,9.2v66.2
		c0,5.1,4.2,9.2,9.2,9.2h31.6c5.1,0,9.2-4.2,9.2-9.2V74L60.4,74.1L60.4,74.1z M40.7,87.2c-2.3,0-4.2-1.9-4.2-4.2
		c0-2.3,1.9-4.2,4.2-4.2c2.3,0,4.2,1.9,4.2,4.2C44.9,85.3,43,87.2,40.7,87.2"/>
	<rect x="25.5" y="24.2" class="st0" width="11.8" height="7.2"/>
	<rect x="25.5" y="41.7" class="st0" width="11.8" height="7.2"/>
	<rect x="25.5" y="61.1" class="st0" width="11.8" height="7.2"/>
	<path class="st0" d="M79.3,44.9c-0.4-2.2-1.3-4.2-2.5-6l4.2-4.2l-4.3-4.3l-4.2,4.2c-1.8-1.2-3.8-2-6-2.5v-6h-6.1v6
		c-2.2,0.4-4.2,1.3-6,2.5l-4.2-4.2l-4.3,4.3l4.2,4.2c-1.2,1.8-2,3.8-2.5,6h-6V51h6c0.4,2.2,1.3,4.2,2.5,6l-4.2,4.2l4.3,4.3l4.2-4.2
		c1.8,1.2,3.8,2,6,2.5v6h6.1v-6c2.2-0.4,4.2-1.3,6-2.5l4.2,4.2l4.3-4.3L76.9,57c1.2-1.8,2-3.8,2.5-6h6v-6.1H79.3z M63.5,54.6
		c-3.7,0-6.7-3-6.7-6.7c0-3.7,3-6.7,6.7-6.7c3.7,0,6.7,3,6.7,6.7C70.2,51.6,67.2,54.6,63.5,54.6"/>
</g>
<g class="st1">
	<g class="st2">
		<path class="st0" d="M66.6,74c-0.4-0.3-0.8-0.6-1.1-1c-0.1-0.2-0.3-0.4-0.4-0.6H15.8V23.7h66.9v31.7c1.4,0.1,2.6,1.1,3.1,2.4
			c0.4-0.2,0.9-0.4,1.5-0.4c0.4,0,0.7,0,1,0.1V11.6c0-2.6-2.1-4.7-4.7-4.7H14.9c-2.6,0-4.7,2.1-4.7,4.7v61.7c0,2.6,2.1,4.7,4.7,4.7
			h51.3c-0.4-0.8-0.5-1.7-0.3-2.6C66.1,74.9,66.3,74.4,66.6,74 M77.6,14.8c0-1,0.8-1.7,1.7-1.7h1.7c1,0,1.7,0.8,1.7,1.7v2
			c0,1-0.8,1.7-1.7,1.7h-1.7c-1,0-1.7-0.8-1.7-1.7V14.8z M69.5,14.8c0-1,0.8-1.7,1.7-1.7H73c1,0,1.7,0.8,1.7,1.7v2
			c0,1-0.8,1.7-1.7,1.7h-1.7c-1,0-1.7-0.8-1.7-1.7V14.8z M61.5,14.8c0-1,0.8-1.7,1.7-1.7h1.7c1,0,1.7,0.8,1.7,1.7v2
			c0,1-0.8,1.7-1.7,1.7h-1.7c-1,0-1.7-0.8-1.7-1.7V14.8z"/>
		<path class="st0" d="M93.9,70.7l-0.5-3c-0.1-0.4-0.4-0.7-0.8-0.6l-2.6,0.5c-0.3-0.7-0.7-1.4-1.2-2.1l1.7-2
			c0.1-0.1,0.2-0.3,0.2-0.5c0-0.2-0.1-0.4-0.3-0.5l-2.3-1.9c-0.1-0.1-0.3-0.2-0.5-0.2c-0.2,0-0.4,0.1-0.5,0.3l-1.7,2
			c-0.7-0.4-1.5-0.6-2.2-0.8v-2.7c0-0.4-0.3-0.7-0.7-0.7h-3c-0.4,0-0.7,0.3-0.7,0.7v2.7c-0.8,0.2-1.5,0.5-2.2,0.8l-1.7-2
			c-0.3-0.3-0.7-0.4-1-0.1l-2.3,1.9c-0.1,0.1-0.2,0.3-0.3,0.5c0,0.2,0,0.4,0.2,0.5l1.7,2c-0.5,0.6-0.9,1.3-1.2,2.1l-2.6-0.5
			c-0.4-0.1-0.8,0.2-0.8,0.6l-0.5,3c0,0.2,0,0.4,0.1,0.5c0.1,0.2,0.3,0.3,0.5,0.3l2.6,0.5c0,0.8,0.2,1.6,0.4,2.4L69,75.7
			c-0.2,0.1-0.3,0.3-0.3,0.4c0,0.2,0,0.4,0.1,0.6l1.5,2.6c0.1,0.2,0.3,0.3,0.4,0.3c0.1,0,0.1,0,0.2,0c0.1,0,0.3,0,0.4-0.1l2.3-1.3
			c0.5,0.6,1.2,1.1,1.8,1.5l-0.9,2.5c-0.1,0.2-0.1,0.4,0,0.6c0.1,0.2,0.2,0.3,0.4,0.4l2.8,1c0.1,0,0.2,0,0.3,0c0.1,0,0.2,0,0.3-0.1
			c0.2-0.1,0.3-0.2,0.4-0.4l0.9-2.5c0.4,0,0.8,0.1,1.2,0.1c0.4,0,0.8,0,1.2-0.1l0.9,2.5c0.1,0.2,0.2,0.3,0.4,0.4
			c0.1,0,0.2,0.1,0.3,0.1c0.1,0,0.2,0,0.3,0l2.8-1c0.2-0.1,0.3-0.2,0.4-0.4c0.1-0.2,0.1-0.4,0-0.6l-0.9-2.5c0.7-0.4,1.3-1,1.8-1.5
			l2.3,1.3c0.1,0.1,0.2,0.1,0.4,0.1c0.1,0,0.1,0,0.2,0c0.2-0.1,0.3-0.2,0.4-0.3l1.5-2.6c0.1-0.2,0.1-0.4,0.1-0.6
			c0-0.2-0.2-0.3-0.3-0.4l-2.3-1.3c0.2-0.8,0.4-1.5,0.4-2.4l2.6-0.5c0.2,0,0.4-0.1,0.5-0.3C93.9,71.1,94,70.9,93.9,70.7 M80.8,75.4
			c-2.2,0-4-1.8-4-4c0-2.2,1.8-4,4-4c2.2,0,4,1.8,4,4C84.9,73.6,83,75.4,80.8,75.4"/>
	</g>
	<path class="st3" d="M43,50.7c0-0.9-0.6-1.8-1.4-2.2l-7.9-3.7l7.9-3.7c0.9-0.4,1.4-1.3,1.4-2.2v-0.1c0-0.8-0.4-1.6-1.1-2.1
		c-0.4-0.2-0.8-0.4-1.3-0.4c-0.4,0-0.7,0.1-1,0.2L27,42.5c-0.9,0.4-1.4,1.3-1.4,2.2v0.2c0,0.9,0.6,1.8,1.4,2.2l12.6,5.9
		c0.3,0.1,0.7,0.2,1,0.2c0.5,0,0.9-0.1,1.3-0.4C42.6,52.3,43,51.6,43,50.7L43,50.7z"/>
	<path class="st3" d="M55.4,30.4c-0.5-0.6-1.2-1-2-1h-0.1c-1.1,0-2,0.7-2.3,1.7l-8.3,25.7c-0.2,0.7-0.1,1.6,0.4,2.2
		c0.5,0.6,1.2,1,2,1h0.1c1.1,0,2-0.7,2.3-1.7l8.3-25.7C56,31.9,55.9,31.1,55.4,30.4"/>
	<path class="st3" d="M71.6,42.5L59,36.6c-0.3-0.1-0.7-0.2-1-0.2c-0.5,0-0.9,0.1-1.3,0.4c-0.7,0.5-1.1,1.2-1.1,2.1v0.1
		c0,0.9,0.6,1.8,1.4,2.2l7.9,3.7L57,48.4c-0.9,0.4-1.4,1.3-1.4,2.2v0.1c0,0.8,0.4,1.6,1.1,2.1c0.4,0.3,0.8,0.4,1.3,0.4
		c0.4,0,0.7-0.1,1-0.2l12.6-5.9c0.9-0.4,1.4-1.3,1.4-2.2v-0.2C73,43.8,72.5,42.9,71.6,42.5"/>
</g>
</svg>
