<?xml version="1.0" encoding="utf-8"?>
<!-- Generator: Adobe Illustrator 23.1.0, SVG Export Plug-In . SVG Version: 6.00 Build 0)  -->
<svg version="1.1" id="Layer_1" xmlns="http://www.w3.org/2000/svg" xmlns:xlink="http://www.w3.org/1999/xlink" x="0px" y="0px"
	 viewBox="0 0 100 100" style="enable-background:new 0 0 100 100;" xml:space="preserve">
<style type="text/css">
	.st0{display:none;}
	.st1{display:inline;fill:#4C70B8;}
	.st2{fill:#4C70B8;}
</style>
<g class="st0">
	<path class="st1" d="M60.4,74.1H21V17.6h39.4v4.2h5.3v-5.4c0-5.1-4.2-9.2-9.2-9.2H24.9c-5.1,0-9.2,4.2-9.2,9.2v66.2
		c0,5.1,4.2,9.2,9.2,9.2h31.6c5.1,0,9.2-4.2,9.2-9.2V74L60.4,74.1L60.4,74.1z M40.7,87.2c-2.3,0-4.2-1.9-4.2-4.2
		c0-2.3,1.9-4.2,4.2-4.2c2.3,0,4.2,1.9,4.2,4.2C44.9,85.3,43,87.2,40.7,87.2"/>
	<rect x="25.5" y="24.2" class="st1" width="11.8" height="7.2"/>
	<rect x="25.5" y="41.7" class="st1" width="11.8" height="7.2"/>
	<rect x="25.5" y="61.1" class="st1" width="11.8" height="7.2"/>
	<path class="st1" d="M79.3,44.9c-0.4-2.2-1.3-4.2-2.5-6l4.2-4.2l-4.3-4.3l-4.2,4.2c-1.8-1.2-3.8-2-6-2.5v-6h-6.1v6
		c-2.2,0.4-4.2,1.3-6,2.5l-4.2-4.2l-4.3,4.3l4.2,4.2c-1.2,1.8-2,3.8-2.5,6h-6V51h6c0.4,2.2,1.3,4.2,2.5,6l-4.2,4.2l4.3,4.3l4.2-4.2
		c1.8,1.2,3.8,2,6,2.5v6h6.1v-6c2.2-0.4,4.2-1.3,6-2.5l4.2,4.2l4.3-4.3L76.9,57c1.2-1.8,2-3.8,2.5-6h6v-6.1H79.3z M63.5,54.6
		c-3.7,0-6.7-3-6.7-6.7c0-3.7,3-6.7,6.7-6.7c3.7,0,6.7,3,6.7,6.7C70.2,51.6,67.2,54.6,63.5,54.6"/>
</g>
<g>
	<g>
		<path class="st2" d="M62.9,74.6c-0.4-0.2-0.7-0.5-1-0.9c-0.1-0.2-0.2-0.4-0.3-0.5H18.2V30.3h58.9v27.9c1.3,0.1,2.3,0.9,2.8,2.1
			c0.4-0.2,0.8-0.3,1.3-0.4c0.3,0,0.6,0,0.9,0.1V19.7c0-2.3-1.9-4.1-4.1-4.1H17.3c-2.3,0-4.1,1.9-4.1,4.1V74c0,2.3,1.9,4.1,4.1,4.1
			h45.2c-0.4-0.7-0.4-1.5-0.2-2.3C62.4,75.4,62.6,75,62.9,74.6 M72.5,22.5c0-0.8,0.7-1.5,1.5-1.5h1.5c0.8,0,1.5,0.7,1.5,1.5v1.7
			c0,0.8-0.7,1.5-1.5,1.5h-1.5c-0.8,0-1.5-0.7-1.5-1.5V22.5z M65.4,22.5c0-0.8,0.7-1.5,1.5-1.5h1.5c0.8,0,1.5,0.7,1.5,1.5v1.7
			c0,0.8-0.7,1.5-1.5,1.5H67c-0.8,0-1.5-0.7-1.5-1.5V22.5z M58.3,22.5c0-0.8,0.7-1.5,1.5-1.5h1.5c0.8,0,1.5,0.7,1.5,1.5v1.7
			c0,0.8-0.7,1.5-1.5,1.5h-1.5c-0.8,0-1.5-0.7-1.5-1.5V22.5z"/>
		<path class="st2" d="M86.9,71.7l-0.5-2.6c-0.1-0.4-0.4-0.6-0.7-0.5L83.4,69c-0.3-0.7-0.6-1.3-1.1-1.8l1.5-1.8
			C84,65.2,84,65,84,64.9c0-0.2-0.1-0.3-0.2-0.4l-2-1.7c-0.1-0.1-0.3-0.2-0.5-0.1c-0.2,0-0.3,0.1-0.4,0.2l-1.5,1.8
			c-0.6-0.3-1.3-0.6-2-0.7v-2.4c0-0.4-0.3-0.6-0.6-0.6h-2.6c-0.4,0-0.6,0.3-0.6,0.6v2.4c-0.7,0.2-1.4,0.4-2,0.7l-1.5-1.8
			c-0.2-0.3-0.6-0.3-0.9-0.1l-2,1.7c-0.1,0.1-0.2,0.3-0.2,0.4c0,0.2,0,0.3,0.1,0.5l1.5,1.8c-0.4,0.6-0.8,1.2-1.1,1.8l-2.3-0.4
			c-0.3-0.1-0.7,0.2-0.7,0.5l-0.5,2.6c0,0.2,0,0.3,0.1,0.5c0.1,0.1,0.2,0.2,0.4,0.3l2.3,0.4c0,0.7,0.2,1.4,0.4,2.1l-2,1.2
			c-0.1,0.1-0.3,0.2-0.3,0.4c0,0.2,0,0.3,0.1,0.5l1.3,2.3c0.1,0.1,0.2,0.3,0.4,0.3c0.1,0,0.1,0,0.2,0c0.1,0,0.2,0,0.3-0.1l2-1.2
			c0.5,0.5,1,1,1.6,1.4l-0.8,2.2c-0.1,0.2-0.1,0.3,0,0.5c0.1,0.2,0.2,0.3,0.4,0.3l2.5,0.9c0.1,0,0.1,0,0.2,0c0.1,0,0.2,0,0.3-0.1
			c0.2-0.1,0.3-0.2,0.3-0.4l0.8-2.2c0.3,0,0.7,0.1,1.1,0.1c0.4,0,0.7,0,1.1-0.1l0.8,2.2c0.1,0.2,0.2,0.3,0.3,0.4
			c0.1,0,0.2,0.1,0.3,0.1c0.1,0,0.1,0,0.2,0l2.5-0.9c0.2-0.1,0.3-0.2,0.4-0.3c0.1-0.2,0.1-0.3,0-0.5l-0.8-2.2
			c0.6-0.4,1.1-0.8,1.6-1.4l2,1.2c0.1,0.1,0.2,0.1,0.3,0.1c0.1,0,0.1,0,0.2,0c0.2,0,0.3-0.2,0.4-0.3L86,77c0.1-0.1,0.1-0.3,0.1-0.5
			c0-0.2-0.2-0.3-0.3-0.4l-2-1.2c0.2-0.7,0.3-1.4,0.4-2.1l2.3-0.4c0.2,0,0.3-0.1,0.4-0.3C86.9,72,87,71.9,86.9,71.7 M75.4,75.8
			c-2,0-3.5-1.6-3.5-3.5c0-2,1.6-3.5,3.5-3.5c2,0,3.5,1.6,3.5,3.5C78.9,74.2,77.3,75.8,75.4,75.8"/>
	</g>
	<path class="st2" d="M42.1,54.1c0-0.8-0.5-1.6-1.2-2l-6.9-3.2l6.9-3.2c0.8-0.4,1.2-1.1,1.2-2v-0.1c0-0.7-0.4-1.4-1-1.8
		c-0.3-0.2-0.7-0.3-1.2-0.3c-0.3,0-0.6,0.1-0.9,0.2L28,46.9c-0.8,0.4-1.2,1.1-1.2,2V49c0,0.8,0.5,1.6,1.2,2L39,56.1
		c0.3,0.1,0.6,0.2,0.9,0.2c0.4,0,0.8-0.1,1.2-0.3C41.7,55.5,42.1,54.9,42.1,54.1L42.1,54.1z"/>
	<path class="st2" d="M53,36.3c-0.4-0.6-1.1-0.9-1.7-0.9h-0.1c-0.9,0-1.8,0.6-2.1,1.5l-7.3,22.6c-0.2,0.7-0.1,1.4,0.3,1.9
		c0.4,0.6,1.1,0.9,1.7,0.9H44c0.9,0,1.8-0.6,2-1.5l7.3-22.6C53.6,37.5,53.4,36.8,53,36.3"/>
	<path class="st2" d="M67.3,46.9l-11.1-5.2c-0.3-0.1-0.6-0.2-0.9-0.2c-0.4,0-0.8,0.1-1.2,0.3c-0.6,0.4-1,1.1-1,1.8v0.1
		c0,0.8,0.5,1.6,1.2,2l6.9,3.2l-6.9,3.2c-0.8,0.4-1.2,1.1-1.2,2v0.1c0,0.7,0.4,1.4,1,1.8c0.3,0.2,0.7,0.3,1.2,0.3
		c0.3,0,0.6-0.1,0.9-0.2l11.1-5.2c0.8-0.4,1.2-1.1,1.2-2v-0.2C68.5,48,68,47.2,67.3,46.9"/>
</g>
</svg>
